REM MD5 c03b850c5cf0ec86b2da39787ad92cda
FILE "Kotobuki Grand Prix (Europe).bin" BINARY
  TRACK 01 MODE2/2352
    INDEX 01 00:00:00
  TRACK 02 AUDIO
    INDEX 00 07:43:36
    INDEX 01 07:45:36
  TRACK 03 AUDIO
    INDEX 00 12:45:37
    INDEX 01 12:47:37
REM LEADOUT 15:48:46
